<svg width="50" height="51" viewBox="0 0 50 51" fill="none" xmlns="http://www.w3.org/2000/svg">
<path d="M25.0112 12.7366C17.913 12.7366 12.1875 18.4621 12.1875 25.5603C12.1875 32.6585 17.913 38.3839 25.0112 38.3839C32.1094 38.3839 37.8348 32.6585 37.8348 25.5603C37.8348 18.4621 32.1094 12.7366 25.0112 12.7366ZM25.0112 33.8973C20.4241 33.8973 16.6741 30.1585 16.6741 25.5603C16.6741 20.9621 20.413 17.2232 25.0112 17.2232C29.6094 17.2232 33.3482 20.9621 33.3482 25.5603C33.3482 30.1585 29.5982 33.8973 25.0112 33.8973ZM41.3505 12.2121C41.3505 13.875 40.0112 15.2031 38.3594 15.2031C36.6964 15.2031 35.3683 13.8639 35.3683 12.2121C35.3683 10.5603 36.7076 9.22099 38.3594 9.22099C40.0112 9.22099 41.3505 10.5603 41.3505 12.2121ZM49.8438 15.2478C49.654 11.2411 48.7388 7.69198 45.8036 4.76787C42.8795 1.84376 39.3304 0.928584 35.3237 0.727692C31.1942 0.493317 18.817 0.493317 14.6875 0.727692C10.692 0.917424 7.14287 1.8326 4.2076 4.75671C1.27233 7.68082 0.368312 11.2299 0.167419 15.2366C-0.0669556 19.3661 -0.0669556 31.7433 0.167419 35.8728C0.357152 39.8795 1.27233 43.4286 4.2076 46.3527C7.14287 49.2768 10.6808 50.192 14.6875 50.3929C18.817 50.6272 31.1942 50.6272 35.3237 50.3929C39.3304 50.2031 42.8795 49.288 45.8036 46.3527C48.7277 43.4286 49.6429 39.8795 49.8438 35.8728C50.0781 31.7433 50.0781 19.3772 49.8438 15.2478ZM44.5089 40.3036C43.6384 42.4911 41.9531 44.1763 39.7545 45.058C36.4621 46.3638 28.6496 46.0625 25.0112 46.0625C21.3728 46.0625 13.5491 46.3527 10.2679 45.058C8.08037 44.1875 6.3951 42.5022 5.5134 40.3036C4.2076 37.0112 4.50894 29.1987 4.50894 25.5603C4.50894 21.9219 4.21876 14.0982 5.5134 10.817C6.38394 8.62948 8.0692 6.94421 10.2679 6.06251C13.5603 4.75671 21.3728 5.05805 25.0112 5.05805C28.6496 5.05805 36.4732 4.76787 39.7545 6.06251C41.942 6.93305 43.6272 8.61832 44.5089 10.817C45.8147 14.1094 45.5134 21.9219 45.5134 25.5603C45.5134 29.1987 45.8147 37.0223 44.5089 40.3036Z" fill="white"/>
</svg>
