<svg width="50" height="42" viewBox="0 0 50 42" fill="none" xmlns="http://www.w3.org/2000/svg">
<path d="M44.8604 10.816C44.8921 11.2601 44.8921 11.7044 44.8921 12.1485C44.8921 25.6954 34.5812 41.3046 15.736 41.3046C9.93017 41.3046 4.53682 39.623 0 36.7044C0.824902 36.7995 1.61797 36.8312 2.47461 36.8312C7.26514 36.8312 11.6751 35.2133 15.1967 32.4531C10.6916 32.3579 6.91621 29.4074 5.61543 25.3465C6.25 25.4416 6.88447 25.5051 7.55078 25.5051C8.4708 25.5051 9.39092 25.3781 10.2475 25.1561C5.55205 24.2043 2.03037 20.08 2.03037 15.099V14.9722C3.39453 15.7336 4.98096 16.2095 6.6623 16.2728C3.90215 14.4327 2.09385 11.2919 2.09385 7.73856C2.09385 5.83505 2.60137 4.09012 3.48975 2.56727C8.53418 8.78553 16.1167 12.8464 24.6191 13.2906C24.4605 12.5292 24.3653 11.7361 24.3653 10.943C24.3653 5.29569 28.9339 0.695496 34.6128 0.695496C37.5633 0.695496 40.2282 1.9328 42.1001 3.93153C44.416 3.48739 46.6368 2.63075 48.6039 1.45692C47.8424 3.83641 46.2244 5.83514 44.0988 7.10409C46.161 6.88212 48.1598 6.31093 49.9998 5.51786C48.6041 7.54823 46.8591 9.35653 44.8604 10.816Z" fill="white"/>
</svg>
