<svg width="48" height="34" viewBox="0 0 48 34" fill="none" xmlns="http://www.w3.org/2000/svg">
<path d="M46.7131 5.77108C46.1679 3.71813 44.5615 2.10129 42.5218 1.55259C38.8247 0.555542 24 0.555542 24 0.555542C24 0.555542 9.17534 0.555542 5.47821 1.55259C3.43854 2.10138 1.83212 3.71813 1.28689 5.77108C0.296265 9.49217 0.296265 17.2559 0.296265 17.2559C0.296265 17.2559 0.296265 25.0196 1.28689 28.7407C1.83212 30.7936 3.43854 32.3431 5.47821 32.8918C9.17534 33.8889 24 33.8889 24 33.8889C24 33.8889 38.8246 33.8889 42.5218 32.8918C44.5615 32.3431 46.1679 30.7936 46.7131 28.7407C47.7037 25.0196 47.7037 17.2559 47.7037 17.2559C47.7037 17.2559 47.7037 9.49217 46.7131 5.77108ZM19.1515 24.3048V10.207L31.542 17.2561L19.1515 24.3048Z" fill="white"/>
</svg>
